<svg width="264" viewBox="0 0 264 50" fill="none" xmlns="http://www.w3.org/2000/svg">
<path d="M13.4769 43.6C10.8769 43.52 8.55688 43.28 6.51688 42.88C4.47688 42.44 2.61688 41.84 0.936875 41.08V33.34C2.57688 34.14 4.55688 34.88 6.87688 35.56C9.19688 36.2 11.3969 36.58 13.4769 36.7V27.64C11.1569 26.72 9.17688 25.84 7.53688 25C5.93688 24.16 4.63688 23.28 3.63688 22.36C2.67688 21.4 1.97688 20.36 1.53688 19.24C1.09688 18.08 0.876875 16.76 0.876875 15.28C0.876875 13.28 1.39688 11.56 2.43688 10.12C3.51688 8.64 4.99688 7.46 6.87688 6.58C8.79688 5.7 10.9969 5.16 13.4769 4.96V0.459996H17.4969V4.84C19.7369 4.92 21.8369 5.18 23.7969 5.62C25.7969 6.06 27.7369 6.7 29.6169 7.54L26.8569 14.38C25.2569 13.7 23.6369 13.18 21.9969 12.82C20.3969 12.46 18.8969 12.22 17.4969 12.1V20.74C19.6569 21.54 21.7169 22.42 23.6769 23.38C25.6369 24.3 27.2169 25.48 28.4169 26.92C29.6569 28.36 30.2769 30.26 30.2769 32.62C30.2769 35.54 29.2169 37.98 27.0969 39.94C24.9769 41.9 21.7769 43.08 17.4969 43.48V49.48H13.4769V43.6ZM17.4969 36.52C18.8569 36.28 19.8569 35.88 20.4969 35.32C21.1369 34.72 21.4569 33.96 21.4569 33.04C21.4569 32.48 21.2969 32 20.9769 31.6C20.6969 31.16 20.2569 30.76 19.6569 30.4C19.0969 30 18.3769 29.6 17.4969 29.2V36.52ZM13.4769 12.22C12.6769 12.34 11.9969 12.54 11.4369 12.82C10.8769 13.06 10.4369 13.4 10.1169 13.84C9.83688 14.24 9.69688 14.72 9.69688 15.28C9.69688 15.84 9.81688 16.34 10.0569 16.78C10.3369 17.18 10.7569 17.58 11.3169 17.98C11.8769 18.34 12.5969 18.72 13.4769 19.12V12.22ZM83.3928 46V38.56H49.7928V4H41.2728V46H83.3928ZM143.894 46L121.094 4H110.414L87.6144 46H97.0344L102.314 36.16H128.894L134.174 46H143.894ZM115.634 11.2L124.934 28.72H106.274L115.634 11.2ZM190.61 36.04L163.07 4H152.39V46H160.91V13.96L188.45 46H199.13V4H190.61V36.04ZM239.558 46C253.718 46 263.618 38.38 263.618 25C263.618 11.8 253.718 4 239.558 4H213.398V46H239.558ZM221.918 11.44H238.178C248.918 11.44 254.978 16 254.978 25C254.978 34 248.918 38.56 238.178 38.56H221.918V11.44Z" fill="white"/>
</svg>
