<svg width="58" height="20" viewBox="0 0 58 20" fill="none" xmlns="http://www.w3.org/2000/svg">
<path d="M13.0747 19.6623H7.88173L4.68519 10.7567L4.81212 19.6623H0V0.350219H4.81212L4.68519 8.63039L7.52399 0.350219H12.6015L8.75876 9.66854L13.0747 19.6623ZM27.0148 10.0688C27.0148 13.0123 26.3955 15.4055 25.1569 17.2483C23.926 19.0828 22.322 20 20.3448 20C18.5907 20 17.0867 19.2954 15.8327 17.8862C14.2556 16.1017 13.467 13.4251 13.467 9.85616C13.467 6.43734 14.2902 3.82323 15.9366 2.01376C17.1598 0.671246 18.6099 0 20.2871 0C22.3412 0 23.976 0.908893 25.1915 2.7267C26.4071 4.54452 27.0148 6.99185 27.0148 10.0688ZM22.0181 10.1063C22.0181 6.61245 21.4488 4.86554 20.3102 4.86554C19.7409 4.86554 19.287 5.32416 18.9485 6.2414C18.6176 7.09194 18.4522 8.34271 18.4522 9.99375C18.4522 11.6198 18.608 12.881 18.9196 13.7774C19.2312 14.6738 19.6639 15.122 20.2178 15.122C20.7871 15.122 21.2257 14.68 21.5334 13.7961C21.8565 12.9122 22.0181 11.6823 22.0181 10.1063ZM29.0689 19.6623V0.350219H33.6618L36.0736 7.12946C36.2044 7.52971 36.3525 7.98833 36.5179 8.50532C36.6833 9.02231 36.866 9.61851 37.066 10.2939L37.5623 11.995C37.3853 10.3189 37.2507 8.88473 37.1584 7.69231C37.066 6.49989 37.0199 5.49928 37.0199 4.69043V0.350219H41.6127V19.6623H37.0199L34.5965 12.5578C34.3426 11.799 34.1138 11.0882 33.9099 10.4253C33.706 9.76235 33.5272 9.13071 33.3733 8.53033C33.4733 9.88952 33.5464 11.0736 33.5925 12.0826C33.6387 13.0915 33.6618 13.9754 33.6618 14.7342V19.6623H29.0689ZM50.51 8.49281H57.2262V9.29331C57.2262 13.0123 56.7146 15.689 55.6914 17.3233C54.5759 19.1078 52.9257 20 50.7408 20C48.5944 20 46.9095 19.1245 45.6863 17.3734C44.4708 15.6056 43.863 13.1791 43.863 10.0938C43.863 6.96684 44.4746 4.50282 45.6979 2.70169C46.9211 0.900554 48.5944 0 50.7177 0C53.5334 0 55.576 1.59265 56.8454 4.77799L52.1833 6.62914C52.114 6.02043 51.9544 5.53888 51.7044 5.18449C51.4543 4.8301 51.1408 4.65291 50.7639 4.65291C49.4406 4.65291 48.779 6.62496 48.779 10.5691C48.779 12.2452 48.9252 13.4626 49.2175 14.2214C49.5099 14.9802 49.9753 15.3596 50.6138 15.3596C50.8677 15.3596 51.0985 15.2929 51.3062 15.1595C51.514 15.0261 51.689 14.8384 51.8313 14.5966C51.9736 14.3548 52.0852 14.0609 52.166 13.7148C52.2467 13.3688 52.2871 12.9831 52.2871 12.5578H50.51V8.49281Z" fill="white"/>
</svg>
